<svg id="Слой_2" data-name="Слой 2" xmlns="http://www.w3.org/2000/svg" viewBox="0 0 180 180">
  <defs>
    <style>
      .cls-1 {
        fill: #00bed3;
      }

      .cls-2 {
        font-size: 60px;
        fill: #fff;
        font-family: Constantia-BoldItalic, Constantia;
        font-weight: 700;
        font-style: italic;
      }

      .cls-3 {
        letter-spacing: -0.01em;
      }
    </style>
  </defs>
  <path class="cls-1" d="M100,10a90,90,0,1,0,90,90A90,90,0,0,0,100,10Zm0,171.72A81.72,81.72,0,1,1,181.72,100,81.72,81.72,0,0,1,100,181.72Z" transform="translate(-10 -10)"/>
  <path class="cls-1" d="M149.53,100A49.53,49.53,0,1,1,100,50.55,49.49,49.49,0,0,1,149.53,100Zm15.16,0A11.1,11.1,0,0,1,175,88.94a75.15,75.15,0,0,0-14.61-34.68,11.09,11.09,0,0,1-15.71-15.39,75.46,75.46,0,0,0-32.6-13.59A11.11,11.11,0,0,1,89.93,25,75.51,75.51,0,0,0,54.8,39.23,11.1,11.1,0,0,1,39.13,54.88,75.17,75.17,0,0,0,25,88.94a11.09,11.09,0,0,1,0,22.12,75.17,75.17,0,0,0,14.13,34.06A11.1,11.1,0,0,1,54.8,160.77,75.51,75.51,0,0,0,89.93,175a11.11,11.11,0,0,1,22.15-.28,75.56,75.56,0,0,0,33.12-13.95,11.1,11.1,0,0,1,15.67-15.65A75.17,75.17,0,0,0,175,111.06,11.1,11.1,0,0,1,164.69,100Z" transform="translate(-10 -10)"/>
  <text class="cls-2" transform="translate(47.65 107.84)"><tspan class="cls-3">I</tspan><tspan x="22.73" y="0">nt</tspan></text>
</svg>
