<svg id="Слой_2" data-name="Слой 2" xmlns="http://www.w3.org/2000/svg" viewBox="0 0 200 200"><defs><style>.cls-1{fill:#00bed3;}</style></defs><path class="cls-1" d="M100,0A100,100,0,1,0,200,100,100,100,0,0,0,100,0Zm0,190.8A90.8,90.8,0,1,1,190.8,100,90.8,90.8,0,0,1,100,190.8Z"/><path class="cls-1" d="M155,100a55,55,0,1,1-55-54.94A55,55,0,0,1,155,100Zm16.84,0a12.34,12.34,0,0,1,11.45-12.29,83.58,83.58,0,0,0-16.22-38.53,12.33,12.33,0,0,1-17.47-17.11A83.86,83.86,0,0,0,113.42,17a12.34,12.34,0,0,1-24.61-.31,83.87,83.87,0,0,0-39,15.81A12.33,12.33,0,0,1,32.37,49.87a83.59,83.59,0,0,0-15.7,37.84,12.32,12.32,0,0,1,0,24.58,83.59,83.59,0,0,0,15.7,37.84,12.33,12.33,0,0,1,17.41,17.39,83.87,83.87,0,0,0,39,15.81,12.34,12.34,0,0,1,24.61-.31,83.91,83.91,0,0,0,36.8-15.5,12.33,12.33,0,0,1,17.41-17.39,83.59,83.59,0,0,0,15.7-37.84A12.34,12.34,0,0,1,171.88,100Z"/></svg>